# xmcd CD database file
#
# Track frame offsets:
#	150
#	14375
#	29570
#	42780
#	56855
#	69285
#	83255
#	98130
#	111385
#	125075
#	142885
#	158535
#	181575
#	199822
#	215462
#	234750
#	250407
#	275162
#	295780
#	315547
#
# Disc length: 4463 seconds
#
# Revision: 4
# Processed by: cddbd v1.5.2PL0 Copyright (c) Steve Scherf et al.
# Submitted via: CDex 1.70beta2
#
DISCID=14116d14
DTITLE=Dionne Warwick - The Definitive Collection
DYEAR=1999
DGENRE=Soul
TTITLE0=Anyone Who Had A Heart - 1963
TTITLE1=Don't Make Me Over - 1962
TTITLE2=Walk On By - 1964
TTITLE3=Message To Michael - 1966
TTITLE4=Alfie - 1967
TTITLE5=I Say A Little Prayer For You - 1967
TTITLE6=The Windows Of The World - 1967
TTITLE7=Do You Know The Way To San Jose - 1968
TTITLE8=I'll Never Fall In Love Again - 1969
TTITLE9=Then Came You (Feat. Spinners) - 1974
TTITLE10=I'll Never Love This Way Again - 1979
TTITLE11=Deja Vu - 1979
TTITLE12=After You - 1980
TTITLE13=No Night So Long - 1980
TTITLE14=Heartbreaker - 1982
TTITLE15=How Many Times Can We Say Goodbye (Feat.  Luther Vandross) - 1983
TTITLE16=Will You Still Love Me Tomorrow - 1983
TTITLE17=Love Power  (Feat. Jeffrey Osborne - 19897
TTITLE18=Reservations For Two (Feat. Kashif) - 1987
TTITLE19=That's What Friends Are For (Feat. Elton John, Gladys Knight and Stevie Wonder) - 1985
EXTD=YEAR: 1999
EXTT0=
EXTT1=
EXTT2=
EXTT3=
EXTT4=
EXTT5=
EXTT6=
EXTT7=
EXTT8=
EXTT9=
EXTT10=
EXTT11=
EXTT12=
EXTT13=
EXTT14=
EXTT15=
EXTT16=
EXTT17=
EXTT18=
EXTT19=
PLAYORDER=
